<?xml version="1.0" encoding="utf-8"?>
<!-- Generator: Adobe Illustrator 16.0.0, SVG Export Plug-In . SVG Version: 6.00 Build 0)  -->
<!DOCTYPE svg PUBLIC "-//W3C//DTD SVG 1.1//EN" "http://www.w3.org/Graphics/SVG/1.1/DTD/svg11.dtd">
<svg version="1.1" id="Calque_1" xmlns="http://www.w3.org/2000/svg" xmlns:xlink="http://www.w3.org/1999/xlink" x="0px" y="0px"
	 width="595.28px" height="841.89px" viewBox="0 0 595.28 841.89" enable-background="new 0 0 595.28 841.89" xml:space="preserve">
<g>
	<rect x="498.45" y="203.72" fill="#86CDB2" width="21.48" height="21.479"/>
	<path fill="#FFFFFF" d="M518.931,204.72v19.479h-19.48V204.72H518.931 M520.931,202.72h-23.48v23.479h23.48V202.72L520.931,202.72z
		"/>
</g>
<g>
	<rect x="451.163" y="156.76" fill="#86CDB2" width="13.004" height="13.004"/>
	<path fill="#FFFFFF" d="M463.167,157.76v11.004h-11.004V157.76H463.167 M465.167,155.76h-15.004v15.004h15.004V155.76
		L465.167,155.76z"/>
</g>
<g>
	<rect x="413.228" y="113.281" fill="#86CDB2" width="21.045" height="21.044"/>
	<path fill="#FFFFFF" d="M433.272,114.281v19.044h-19.045v-19.044H433.272 M435.272,112.281h-23.045v23.044h23.045V112.281
		L435.272,112.281z"/>
</g>
<g>
	<rect x="378.443" y="105.454" fill="#86CDB2" width="8.435" height="8.436"/>
	<path fill="#FFFFFF" d="M385.878,106.454v6.436h-6.435v-6.436H385.878 M387.878,104.454h-10.435v10.436h10.435V104.454
		L387.878,104.454z"/>
</g>
<g>
	<rect x="342.788" y="116.976" fill="#86CDB2" width="13.654" height="13.653"/>
	<path fill="#FFFFFF" d="M355.442,117.976v11.653h-11.654v-11.653H355.442 M357.442,115.976h-15.654v15.653h15.654V115.976
		L357.442,115.976z"/>
</g>
<g>
	<rect x="535.409" y="238.506" fill="#86CDB2" width="13.217" height="13.218"/>
	<path fill="#FFFFFF" d="M547.626,239.506v11.218h-11.217v-11.218H547.626 M549.626,237.506h-15.217v15.218h15.217V237.506
		L549.626,237.506z"/>
</g>
<g>
	<rect x="570.628" y="282.855" fill="#86CDB2" width="14.957" height="14.957"/>
	<path fill="#FFFFFF" d="M584.585,283.855v12.957h-12.957v-12.957H584.585 M586.585,281.855h-16.957v16.957h16.957V281.855
		L586.585,281.855z"/>
</g>
<g>
	<rect x="533.902" y="214.367" fill="#86CDB2" width="11.829" height="11.871"/>
	<path fill="#FFFFFF" d="M544.731,215.367v9.871h-9.829v-9.871H544.731 M546.731,213.367h-13.829v13.871h13.829V213.367
		L546.731,213.367z"/>
</g>
<g>
	<rect x="75.351" y="170.313" fill="#86CDB2" width="21.479" height="21.48"/>
	<path fill="#FFFFFF" d="M95.83,171.313v19.48H76.351v-19.48H95.83 M97.83,169.313H74.351v23.48H97.83V169.313L97.83,169.313z"/>
</g>
<g>
	<rect x="131.113" y="132.093" fill="#86CDB2" width="13.004" height="13.004"/>
	<path fill="#FFFFFF" d="M143.117,133.093v11.004h-11.004v-11.004H143.117 M145.117,131.093h-15.004v15.004h15.004V131.093
		L145.117,131.093z"/>
</g>
<g>
	<rect x="161.008" y="113.281" fill="#86CDB2" width="21.045" height="21.044"/>
	<path fill="#FFFFFF" d="M181.053,114.281v19.044h-19.045v-19.044H181.053 M183.053,112.281h-23.045v23.044h23.045V112.281
		L183.053,112.281z"/>
</g>
<g>
	<rect x="208.401" y="105.454" fill="#86CDB2" width="8.436" height="8.436"/>
	<path fill="#FFFFFF" d="M215.837,106.454v6.436h-6.436v-6.436H215.837 M217.837,104.454h-10.436v10.436h10.436V104.454
		L217.837,104.454z"/>
</g>
<g>
	<rect x="238.839" y="116.976" fill="#86CDB2" width="13.652" height="13.653"/>
	<path fill="#FFFFFF" d="M251.491,117.976v11.653h-11.652v-11.653H251.491 M253.491,115.976h-15.652v15.653h15.652V115.976
		L253.491,115.976z"/>
</g>
<g>
	<rect x="46.653" y="213.84" fill="#86CDB2" width="13.218" height="13.217"/>
	<path fill="#FFFFFF" d="M58.871,214.84v11.217H47.653V214.84H58.871 M60.871,212.84H45.653v15.217h15.218V212.84L60.871,212.84z"/>
</g>
<g>
	<rect x="9.695" y="258.189" fill="#86CDB2" width="14.958" height="14.957"/>
	<path fill="#FFFFFF" d="M23.652,259.189v12.957H10.695v-12.957H23.652 M25.652,257.189H8.695v16.957h16.958V257.189L25.652,257.189
		z"/>
</g>
<g>
	<rect x="50.97" y="188.99" fill="#86CDB2" width="11.828" height="11.871"/>
	<path fill="#FFFFFF" d="M61.798,189.99v9.871H51.97v-9.871H61.798 M63.798,187.99H49.97v13.871h13.828V187.99L63.798,187.99z"/>
</g>
<polygon fill="#86CDB2" points="297.638,0 0,0 0,243.449 2,243.449 6.695,243.449 6.695,228.492 6.695,226.492 8.695,226.492 
	25.652,226.492 27.652,226.492 27.652,228.492 27.652,243.449 28.87,243.449 28.87,223.709 28.87,221.709 30.87,221.709 
	40.175,221.709 40.175,201.533 40.175,199.533 42.175,199.533 44.577,199.533 44.577,183.707 44.577,181.707 46.577,181.707 
	64.351,181.707 64.405,181.707 68.872,181.707 68.872,153.27 68.872,151.27 70.872,151.27 101.308,151.27 103.308,151.27 
	103.308,153.27 103.308,181.707 105.83,181.707 105.8,144.416 105.798,142.414 107.8,142.414 125.473,142.414 125.397,120.231 
	125.391,118.224 127.397,118.224 147.833,118.224 149.833,118.224 149.833,120.224 149.833,125.933 155.399,125.933 155.399,99.671 
	155.399,97.671 157.399,97.671 185.661,97.671 187.661,97.671 187.661,99.671 187.661,125.933 189.314,125.933 189.314,109.671 
	189.314,107.671 191.314,107.671 202.793,107.671 202.793,94.018 202.793,92.018 204.793,92.018 220.446,92.018 222.446,92.018 
	222.446,94.018 222.446,107.671 235.839,107.671 235.839,94.018 235.839,92.018 237.839,92.018 253.491,92.018 255.491,92.018 
	255.491,94.018 255.491,107.671 256.71,107.671 256.71,90.54 256.71,88.54 258.71,88.54 297.638,88.54 336.571,88.54 338.571,88.54 
	338.571,90.54 338.571,107.671 339.788,107.671 339.788,94.018 339.788,92.018 341.788,92.018 357.442,92.018 359.442,92.018 
	359.442,94.018 359.442,107.671 372.835,107.671 372.835,94.018 372.835,92.018 374.835,92.018 390.487,92.018 392.487,92.018 
	392.487,94.018 392.487,107.671 403.966,107.671 405.966,107.671 405.966,109.671 405.966,125.933 407.618,125.933 407.618,99.671 
	407.618,97.671 409.618,97.671 437.882,97.671 439.882,97.671 439.882,99.671 439.882,125.933 447.447,125.933 449.447,125.933 
	449.447,127.933 449.447,142.891 467.883,142.891 469.883,142.891 469.883,144.891 469.883,163.326 487.449,163.326 
	489.449,163.326 489.449,165.326 489.449,206.373 491.972,206.373 491.972,177.937 491.972,175.937 493.972,175.937 
	524.408,175.937 526.408,175.937 526.408,177.937 526.408,206.373 530.876,206.373 530.931,206.373 548.703,206.373 
	550.703,206.373 550.703,208.373 550.703,224.201 553.105,224.201 555.105,224.201 555.105,226.201 555.105,246.375 564.41,246.375 
	566.41,246.375 566.41,248.375 566.41,268.115 567.628,268.115 567.628,253.158 567.628,251.158 569.628,251.158 586.585,251.158 
	588.585,251.158 588.585,253.158 588.585,268.115 593.28,268.115 595.28,268.115 595.28,0 "/>
<polygon fill="#FFFFFF" points="593.28,268.115 588.585,268.115 588.585,253.158 588.585,251.158 586.585,251.158 569.628,251.158 
	567.628,251.158 567.628,253.158 567.628,268.115 566.41,268.115 566.41,248.375 566.41,246.375 564.41,246.375 555.105,246.375 
	555.105,226.201 555.105,224.201 553.105,224.201 550.703,224.201 550.703,208.373 550.703,206.373 548.703,206.373 
	530.931,206.373 530.876,206.373 526.408,206.373 526.408,177.937 526.408,175.937 524.408,175.937 493.972,175.937 
	491.972,175.937 491.972,177.937 491.972,206.373 489.449,206.373 489.449,165.326 489.449,163.326 487.449,163.326 
	469.883,163.326 469.883,144.891 469.883,142.891 467.883,142.891 449.447,142.891 449.447,127.933 449.447,125.933 
	447.447,125.933 439.882,125.933 439.882,99.671 439.882,97.671 437.882,97.671 409.618,97.671 407.618,97.671 407.618,99.671 
	407.618,125.933 405.966,125.933 405.966,109.671 405.966,107.671 403.966,107.671 392.487,107.671 392.487,94.018 392.487,92.018 
	390.487,92.018 374.835,92.018 372.835,92.018 372.835,94.018 372.835,107.671 359.442,107.671 359.442,94.018 359.442,92.018 
	357.442,92.018 341.788,92.018 339.788,92.018 339.788,94.018 339.788,107.671 338.571,107.671 338.571,90.54 338.571,88.54 
	336.571,88.54 297.638,88.54 258.71,88.54 256.71,88.54 256.71,90.54 256.71,107.671 255.491,107.671 255.491,94.018 
	255.491,92.018 253.491,92.018 237.839,92.018 235.839,92.018 235.839,94.018 235.839,107.671 222.446,107.671 222.446,94.018 
	222.446,92.018 220.446,92.018 204.793,92.018 202.793,92.018 202.793,94.018 202.793,107.671 191.314,107.671 189.314,107.671 
	189.314,109.671 189.314,125.933 187.661,125.933 187.661,99.671 187.661,97.671 185.661,97.671 157.399,97.671 155.399,97.671 
	155.399,99.671 155.399,125.933 149.833,125.933 149.833,120.224 149.833,118.224 147.833,118.224 127.397,118.224 125.391,118.224 
	125.397,120.231 125.473,142.414 107.8,142.414 105.798,142.414 105.8,144.416 105.83,181.707 103.308,181.707 103.308,153.27 
	103.308,151.27 101.308,151.27 70.872,151.27 68.872,151.27 68.872,153.27 68.872,181.707 64.405,181.707 64.351,181.707 
	46.577,181.707 44.577,181.707 44.577,183.707 44.577,199.533 42.175,199.533 40.175,199.533 40.175,201.533 40.175,221.709 
	30.87,221.709 28.87,221.709 28.87,223.709 28.87,243.449 27.652,243.449 27.652,228.492 27.652,226.492 25.652,226.492 
	8.695,226.492 6.695,226.492 6.695,228.492 6.695,243.449 2,243.449 0,243.449 0,245.449 8.695,245.449 8.695,228.492 
	25.652,228.492 25.652,245.449 30.87,245.449 30.87,223.709 42.175,223.709 42.175,201.533 46.577,201.533 46.577,183.707 
	64.351,183.707 64.405,183.707 70.872,183.707 70.872,153.27 101.308,153.27 101.308,183.707 107.831,183.707 107.8,144.414 
	127.479,144.414 127.397,120.224 147.833,120.224 147.833,127.933 157.399,127.933 157.399,99.671 185.661,99.671 185.661,127.933 
	191.314,127.933 191.314,109.671 204.793,109.671 204.793,94.018 220.446,94.018 220.446,109.671 237.839,109.671 237.839,94.018 
	253.491,94.018 253.491,109.671 258.71,109.671 258.71,90.54 297.638,90.54 336.571,90.54 336.571,109.671 341.788,109.671 
	341.788,94.018 357.442,94.018 357.442,109.671 374.835,109.671 374.835,94.018 390.487,94.018 390.487,109.671 403.966,109.671 
	403.966,127.933 409.618,127.933 409.618,99.671 437.882,99.671 437.882,127.933 447.447,127.933 447.447,144.891 467.883,144.891 
	467.883,165.326 487.449,165.326 487.449,208.373 493.972,208.373 493.972,177.937 524.408,177.937 524.408,208.373 
	530.876,208.373 530.931,208.373 548.703,208.373 548.703,226.201 553.105,226.201 553.105,248.375 564.41,248.375 564.41,270.115 
	569.628,270.115 569.628,253.158 586.585,253.158 586.585,270.115 595.28,270.115 595.28,268.115 "/>
</svg>
