<?xml version="1.0" encoding="utf-8"?>
<!-- Generator: Adobe Illustrator 16.0.0, SVG Export Plug-In . SVG Version: 6.00 Build 0)  -->
<!DOCTYPE svg PUBLIC "-//W3C//DTD SVG 1.1//EN" "http://www.w3.org/Graphics/SVG/1.1/DTD/svg11.dtd">
<svg version="1.1" xmlns="http://www.w3.org/2000/svg" xmlns:xlink="http://www.w3.org/1999/xlink" x="0px" y="0px"
	 width="595.28px" height="841.89px" viewBox="0 0 595.28 841.89" enable-background="new 0 0 595.28 841.89" xml:space="preserve">
<g id="Calque_2">
	<path fill="#F16A4D" d="M520.931,202.72v23.48h-23.48v-23.48H520.931z"/>
	<path fill="#F16A4D" d="M465.167,170.764h-15.004v-15.005h15.004V170.764z"/>
	<path fill="#F16A4D" d="M435.272,112.281v23.044h-23.045v-23.044H435.272z"/>
	<path fill="#F16A4D" d="M387.878,104.454v10.436h-10.435v-10.436H387.878z"/>
	<path fill="#F16A4D" d="M357.442,115.976v15.653h-15.654v-15.653H357.442z"/>
	<path fill="#F16A4D" d="M549.626,252.724h-15.217v-15.217h15.217V252.724z"/>
	<path fill="#F16A4D" d="M586.585,281.856v16.957h-16.957v-16.957H586.585z"/>
	<path fill="#F16A4D" d="M546.731,213.368v13.871h-13.829v-13.871H546.731z"/>
	<path fill="#F16A4D" d="M74.351,169.313v23.48H97.83v-23.48H74.351z"/>
	<path fill="#F16A4D" d="M130.113,146.097h15.004v-15.004h-15.004V146.097z"/>
	<path fill="#F16A4D" d="M160.008,112.281v23.044h23.045v-23.044H160.008z"/>
	<path fill="#F16A4D" d="M207.401,104.454v10.436h10.436v-10.436H207.401z"/>
	<path fill="#F16A4D" d="M237.839,115.976v15.653h15.652v-15.653H237.839z"/>
	<path fill="#F16A4D" d="M45.653,228.057h15.218v-15.217H45.653V228.057z"/>
	<path fill="#F16A4D" d="M8.695,257.189v16.958h16.958v-16.958H8.695z"/>
	<polygon fill="#F16A4D" points="297.638,0 0,0 0,245.449 8.695,245.449 8.695,228.492 25.652,228.492 25.652,245.449 
		30.87,245.449 30.87,223.709 42.175,223.709 42.175,201.534 46.577,201.534 46.577,183.707 64.351,183.707 64.405,183.707 
		70.872,183.707 70.872,153.27 101.308,153.27 101.308,183.707 107.831,183.707 107.8,144.414 127.479,144.414 127.397,120.224 
		147.833,120.224 147.833,127.933 157.399,127.933 157.399,99.671 185.661,99.671 185.661,127.933 191.314,127.933 191.314,109.671 
		204.793,109.671 204.793,94.018 220.446,94.018 220.446,109.671 237.839,109.671 237.839,94.018 253.491,94.018 253.491,109.671 
		258.71,109.671 258.71,90.54 297.638,90.54 336.571,90.54 336.571,109.671 341.788,109.671 341.788,94.018 357.442,94.018 
		357.442,109.671 374.835,109.671 374.835,94.018 390.487,94.018 390.487,109.671 403.966,109.671 403.966,127.933 409.618,127.933 
		409.618,99.671 437.882,99.671 437.882,127.933 447.447,127.933 447.447,144.891 467.883,144.891 467.883,165.327 487.449,165.327 
		487.449,208.373 493.972,208.373 493.972,177.937 524.408,177.937 524.408,208.373 530.876,208.373 530.931,208.373 
		548.703,208.373 548.703,226.201 553.105,226.201 553.105,248.375 564.41,248.375 564.41,270.116 569.628,270.116 569.628,253.159 
		586.585,253.159 586.585,270.116 595.28,270.116 595.28,0 	"/>
	<path fill="#F16A4D" d="M49.97,187.991v13.871h13.828v-13.871H49.97z"/>
</g>
<g id="Calque_3">
</g>
</svg>
