<?xml version="1.0" encoding="utf-8"?>
<!-- Generator: Adobe Illustrator 16.0.0, SVG Export Plug-In . SVG Version: 6.00 Build 0)  -->
<!DOCTYPE svg PUBLIC "-//W3C//DTD SVG 1.1//EN" "http://www.w3.org/Graphics/SVG/1.1/DTD/svg11.dtd">
<svg version="1.1" id="Layer_1" xmlns="http://www.w3.org/2000/svg" xmlns:xlink="http://www.w3.org/1999/xlink" x="0px" y="0px"
	 width="1280px" height="720px" viewBox="-613.299 -347.227 1280 720" enable-background="new -613.299 -347.227 1280 720"
	 xml:space="preserve">
<rect x="-613.299" y="-347.227" width="1280" height="720"/>
<path fill="none" stroke="#FFFFFF" stroke-width="6" stroke-miterlimit="10" d="M-346.861,189.571v-343.428c0,0,28.026,0,97.844,0
	c85.105,0,93.843,158.607,0,158.607c-90.187,0-98.118,0.13-98.118,0.13s41.185-0.13,98.118-0.13
	c136.021,0,146.198,184.764,0,184.764L-346.861,189.571z"/>
<polyline fill="none" stroke="#FFFFFF" stroke-width="6" stroke-miterlimit="10" points="23.746,114.558 -43.164,114.558 
	-43.164,-94.938 23.746,-94.938 "/>
<line fill="none" stroke="#FFFFFF" stroke-width="8" stroke-miterlimit="10" x1="-41.709" y1="12.725" x2="23.76" y2="12.725"/>
<path fill="none" stroke="#FFFFFF" stroke-width="6" stroke-miterlimit="10" d="M406.92,148.775
	c-30.129,24.083-68.536,38.492-110.397,38.492c-96.809,0-175.32-77.158-175.32-172.426c0-95.189,78.497-172.37,175.32-172.37
	c45.993,0,87.869,17.426,119.149,45.914"/>
<path fill="none" stroke="#FFFFFF" stroke-width="6" stroke-linejoin="round" stroke-miterlimit="10" d="M260.318-44.748h66.017
	L277.521,4.074l6.65-1.555c22.471,0,40.724,19.549,40.724,43.647c0,24.111-18.239,43.646-40.724,43.646
	c-14.065,0-26.474-7.673-33.772-19.232"/>
</svg>
